<?xml version="1.0" standalone="no"?><!DOCTYPE svg PUBLIC "-//W3C//DTD SVG 1.1//EN" "http://www.w3.org/Graphics/SVG/1.1/DTD/svg11.dtd"><svg t="1761024241144" class="icon" viewBox="0 0 1024 1024" version="1.1" xmlns="http://www.w3.org/2000/svg" p-id="23807" xmlns:xlink="http://www.w3.org/1999/xlink" width="200" height="200"><path d="M0 0m252.061538 0l504.123077 0q252.061538 0 252.061539 252.061538l0 504.123077q0 252.061538-252.061539 252.061539l-504.123077 0q-252.061538 0-252.061538-252.061539l0-504.123077q0-252.061538 252.061538-252.061538Z" fill="#24B25B" p-id="23808"></path><path d="M840.877292 654.336c4.411077-7.309785 6.616615-10.980431 7.026216-14.288738a15.753846 15.753846 0 0 0-5.7344-14.178462c-2.599385-2.126769-6.726892-3.229538-14.966154-5.435077-57.690585-15.454523-86.535877-23.189662-111.883816-20.810831a141.784615 141.784615 0 0 0-102.4 59.124185c-14.729846 20.763569-22.449231 49.608862-37.919507 107.283692L567.138462 795.411692l65.472984-1.213046c45.796431-0.834954 68.686769-1.260308 89.229785-8.097477a141.816123 141.816123 0 0 0 49.293784-28.4672c16.194954-14.367508 28.010338-33.981046 51.641108-73.223877l18.101169-30.058338z" fill="#FFFFFF" p-id="23809"></path><path d="M209.368615 260.993969c-1.575385-8.223508-2.363077-12.351015-1.102769-16.1792a16.699077 16.699077 0 0 1 6.238523-8.270769c3.371323-2.237046 7.404308-2.583631 15.438769-3.2768 34.563938-2.961723 100.856123-5.167262 174.316308 10.570831 107.393969 23.016369 130.410338 46.032738 161.098831 107.409723 11.815385 23.630769 17.959385 56.351508 17.518277 89.859938H582.892308v582.892308h-63.015385V577.772308l-0.220554 0.12603c-0.897969-52.554831-4.552862-98.949908-12.965415-126.093784-29.302154-94.444308-116.468185-104.967877-118.657969-105.219939h-0.157539c-2.126769 0-2.898708 3.324062-1.024 4.348062 19.266954 10.555077 64.827077 41.149046 80.265846 100.871877 6.396062 24.733538 8.664615 78.4384 8.790646 139.799631-65.504492 10.6496-151.221169-10.6496-186.714584-63.913354-36.596185-54.8864-68.340185-206.737723-79.824739-266.696862z" fill="#FFFFFF" p-id="23810"></path></svg>