<?xml version="1.0" standalone="no"?><!DOCTYPE svg PUBLIC "-//W3C//DTD SVG 1.1//EN" "http://www.w3.org/Graphics/SVG/1.1/DTD/svg11.dtd"><svg t="1761026919934" class="icon" viewBox="0 0 1152 1024" version="1.1" xmlns="http://www.w3.org/2000/svg" p-id="50463" xmlns:xlink="http://www.w3.org/1999/xlink" width="225" height="200"><path d="M640.493503 896.702297h-480.373688A160.304958 160.304958 0 0 1 0 736.582482V448.35827a160.3192 160.3192 0 0 1 160.119815-160.134057h480.373688a160.3192 160.3192 0 0 1 160.134057 160.134057V736.582482a160.304958 160.304958 0 0 1-160.134057 160.119815z m-480.373688-544.418765a96.188671 96.188671 0 0 0-96.074737 96.074738V736.582482a96.188671 96.188671 0 0 0 96.074737 96.074738h480.373688a96.17443 96.17443 0 0 0 96.074737-96.074738V448.35827a96.17443 96.17443 0 0 0-96.074737-96.074738z" fill="#24b25b" p-id="50464" data-spm-anchor-id="a313x.search_index.0.i30.18633a81rhSIE9" class=""></path><path d="M992.777035 608.478085h-480.373688a160.3192 160.3192 0 0 1-160.134057-160.119815V160.134057A160.333441 160.333441 0 0 1 512.403347 0h480.373688a160.3192 160.3192 0 0 1 160.191024 160.134057v288.224213a160.304958 160.304958 0 0 1-160.191024 160.119815zM512.403347 64.059319a96.17443 96.17443 0 0 0-96.074737 96.074738v288.224213a96.17443 96.17443 0 0 0 96.074737 96.074737h480.373688a96.17443 96.17443 0 0 0 96.103221-96.074737V160.134057a96.17443 96.17443 0 0 0-96.074738-96.074738z" fill="#1296db" p-id="50465" data-spm-anchor-id="a313x.search_index.0.i34.18633a81rhSIE9" class="selected"></path><path d="M97.199834 1023.838257l185.028609-157.955072a0.683603 0.683603 0 0 0-0.455736-1.210547H96.758341a0.697845 0.697845 0 0 0-0.683603 0.683603v157.969313a0.683603 0.683603 0 0 0 1.125096 0.512703z" fill="#24b25b" p-id="50466" data-spm-anchor-id="a313x.search_index.0.i32.18633a81rhSIE9" class=""></path></svg>