<?xml version="1.0" standalone="no"?><!DOCTYPE svg PUBLIC "-//W3C//DTD SVG 1.1//EN" "http://www.w3.org/Graphics/SVG/1.1/DTD/svg11.dtd"><svg t="1761204768653" class="icon" viewBox="0 0 1024 1024" version="1.1" xmlns="http://www.w3.org/2000/svg" p-id="12899" xmlns:xlink="http://www.w3.org/1999/xlink" width="200" height="200"><path d="M655.68 539.008v38.272H547.328v344.448h108.416V960H509.056V539.008h146.688z m274.304 0V960H783.36v-38.272h108.416V577.28H783.36v-38.272h146.688zM476.992 65.024c209.536 0 382.976 78.72 382.976 191.36v159.424a42.24 42.24 0 0 1 0 3.584v72.32h-131.392c39.296-20.48 63.808-45.056 67.2-69.952l0.32-5.056v-51.84c-67.84 50.624-183.168 81.856-312.832 82.816h-6.272c-132.288 0-250.24-31.36-319.168-82.88v51.008c0 62.08 134.208 124.48 306.432 127.488v63.808c-127.104-1.984-239.68-33.024-306.432-82.816v51.008c0 62.08 134.208 124.48 306.432 127.424v63.808c-127.104-1.92-239.68-32.96-306.432-82.816v51.008c0 62.08 134.208 124.544 306.432 127.488v63.808c-197.952-3.072-360.768-76.672-369.856-181.952l-0.384-9.344V252.992c3.456-110.72 175.552-187.968 382.976-187.968z m321.536 576H656l3.072 15.36c9.6 44.928 23.616 76.864 41.92 95.808 64.896 67.328 97.28-109.888 97.536-111.168h43.584s-47.68 231.872-156.608 169.088c-28.928-16.64-55.424-72.96-79.488-169.088h49.92z m-316.16-512.192h-5.376c-178.304 0-319.168 63.936-319.168 127.552 0 63.552 140.864 127.552 319.168 127.552 175.808 0 315.264-62.208 319.104-124.928v-2.624c0.064-62.976-137.984-126.336-313.728-127.552z" fill="#707070" p-id="12900"></path></svg>