<?xml version="1.0" standalone="no"?><!DOCTYPE svg PUBLIC "-//W3C//DTD SVG 1.1//EN" "http://www.w3.org/Graphics/SVG/1.1/DTD/svg11.dtd"><svg t="1761027094252" class="icon" viewBox="0 0 1024 1024" version="1.1" xmlns="http://www.w3.org/2000/svg" p-id="54078" xmlns:xlink="http://www.w3.org/1999/xlink" width="200" height="200"><path d="M274.863158 865.010526H137.431579c-10.778947 0-18.863158 8.084211-18.863158 18.863158s8.084211 18.863158 18.863158 18.863158h137.431579c10.778947 0 18.863158-8.084211 18.863158-18.863158s-8.084211-18.863158-18.863158-18.863158zM582.063158 865.010526h-137.431579c-10.778947 0-18.863158 8.084211-18.863158 18.863158s8.084211 18.863158 18.863158 18.863158h137.431579c10.778947 0 18.863158-8.084211 18.863158-18.863158s-10.778947-18.863158-18.863158-18.863158z" p-id="54079" fill="#515151"></path><path d="M983.578947 309.894737l-150.905263-264.084211c-5.389474-8.084211-16.168421-13.473684-26.947368-8.08421-8.084211 5.389474-13.473684 16.168421-8.084211 26.947368l10.778948 10.778948h-161.684211l-2.694737-24.252632c-2.694737-10.778947-10.778947-16.168421-21.557894-16.168421-10.778947 2.694737-16.168421 10.778947-16.168422 21.557895l2.694737 18.863158h-191.326315l2.694736-18.863158c2.694737-10.778947-5.389474-18.863158-16.168421-21.557895-10.778947-2.694737-18.863158 5.389474-21.557894 16.168421l-5.389474 24.252632H215.578947l5.389474-10.778948c8.084211-10.778947 2.694737-21.557895-5.389474-26.947368-8.084211-5.389474-21.557895-2.694737-26.947368 8.08421l-150.905263 264.084211c-2.694737 5.389474-5.389474 13.473684-5.389474 18.863158v619.789473c0 21.557895 18.863158 40.421053 43.11579 40.421053h256c8.084211 0 18.863158-2.694737 24.252631-8.08421 8.084211 5.389474 16.168421 8.084211 24.252632 8.08421h256c8.084211 0 18.863158-2.694737 24.252631-8.08421 8.084211 5.389474 16.168421 8.084211 24.252632 8.08421h256c24.252632 0 43.115789-18.863158 43.115789-40.421053v-619.789473c5.389474-8.084211 2.694737-13.473684 0-18.863158z m-264.08421-196.71579l45.810526 132.042106c2.694737 8.084211 10.778947 13.473684 18.863158 13.473684h5.389474c10.778947-2.694737 16.168421-13.473684 10.778947-24.252632l-43.115789-121.263158h70.063158l99.705263 175.157895h-239.831579c-2.694737 0-8.084211 0-10.778948 2.694737l-26.947368-175.157895h70.063158z m-226.357895 0v126.652632c0 10.778947 8.084211 18.863158 18.863158 18.863158s18.863158-8.084211 18.863158-18.863158V113.178947h83.536842l26.947368 175.157895h-256l26.947369-175.157895h80.842105z m-229.052631 0L220.968421 231.747368c-2.694737 10.778947 2.694737 21.557895 13.473684 24.252632h5.389474c8.084211 0 16.168421-5.389474 18.863158-13.473684l45.810526-132.042105h67.368421l-26.947368 175.157894c-2.694737 0-8.084211-2.694737-10.778948-2.694737H97.010526L196.715789 107.789474h67.368422z m70.063157 838.063158H78.147368c-2.694737 0-5.389474-2.694737-5.389473-2.694737v-619.789473s2.694737-2.694737 5.389473-2.694737h256c2.694737 0 5.389474 2.694737 5.389474 2.694737v619.789473s0 2.694737-5.389474 2.694737z m307.2 0h-256c-2.694737 0-5.389474-2.694737-5.389473-2.694737V326.063158s2.694737-2.694737 5.389473-2.694737h256c2.694737 0 5.389474 2.694737 5.389474 2.694737v622.48421s-2.694737 2.694737-5.389474 2.694737z m304.505264 0h-256c-2.694737 0-5.389474-2.694737-5.389474-2.694737v-619.789473s2.694737-2.694737 5.389474-2.694737h256c2.694737 0 5.389474 2.694737 5.389473 2.694737v619.789473s-2.694737 2.694737-5.389473 2.694737z" p-id="54080" fill="#515151"></path><path d="M886.568421 865.010526h-137.431579c-10.778947 0-18.863158 8.084211-18.863158 18.863158s8.084211 18.863158 18.863158 18.863158h137.431579c10.778947 0 18.863158-8.084211 18.863158-18.863158s-8.084211-18.863158-18.863158-18.863158z" p-id="54081" fill="#515151"></path></svg>