<?xml version="1.0" standalone="no"?><!DOCTYPE svg PUBLIC "-//W3C//DTD SVG 1.1//EN" "http://www.w3.org/Graphics/SVG/1.1/DTD/svg11.dtd"><svg t="1761024764850" class="icon" viewBox="0 0 1024 1024" version="1.1" xmlns="http://www.w3.org/2000/svg" p-id="27682" xmlns:xlink="http://www.w3.org/1999/xlink" width="200" height="200"><path d="M898.4064 310.6816c-20.48-7.9872-44.8512-0.6656-54.4768 16.384-68.0448 97.9968-195.9936 156.2112-331.7248 150.8352-135.68 3.7888-263.0144-54.4768-332.1344-151.8592-10.1376-16.896-34.816-23.6544-55.0912-15.2064-20.224 8.4992-28.3648 29.0304-18.176 45.9264 36.4544 54.016 88.9344 99.328 152.32 131.7376l-69.2224 99.6352c-10.1376 16.2304-3.1744 36.1984 15.8208 45.3632 18.944 9.1648 43.264 4.1984 55.04-11.264l71.68-102.3488c44.4416 14.4896 91.2384 23.3472 138.8032 26.2656v136.4992c0 18.8928 18.3296 34.1504 40.96 34.1504 22.6304 0 40.96-15.2576 40.96-34.1504v-136.4992c47.616-2.56 94.5152-10.9568 139.264-24.8832l71.2192 102.4c6.9632 11.0592 20.6848 18.1248 35.7376 18.2784 15.0528 0.1536 28.9792-6.5536 36.352-17.5104a29.3376 29.3376 0 0 0-1.2288-34.9184L766.1056 489.472c64-32.3584 116.2752-78.4384 151.552-133.4784 9.6256-16.896 1.024-37.2224-19.2512-45.3632z" p-id="27683"></path></svg>