<?xml version="1.0" standalone="no"?><!DOCTYPE svg PUBLIC "-//W3C//DTD SVG 1.1//EN" "http://www.w3.org/Graphics/SVG/1.1/DTD/svg11.dtd"><svg t="1761028912845" class="icon" viewBox="0 0 1024 1024" version="1.1" xmlns="http://www.w3.org/2000/svg" p-id="78163" xmlns:xlink="http://www.w3.org/1999/xlink" width="200" height="200"><path d="M512 0c45.445 0 82.286 36.84 82.286 82.286 0 32.3-18.61 60.252-45.692 73.721l-0.023 63.422H768c60.594 0 109.714 49.12 109.714 109.714l0.007 260.975 3.994 2.01a229.095 229.095 0 0 1 48.993 33.998l6.03 5.675-4.148-3.948-0.019-225.567h73.143V640h-60.979l-0.507-0.546c38.142 40.843 61.486 95.683 61.486 155.975 0 126.236-102.335 228.571-228.571 228.571-108.916 0-200.04-76.18-222.995-178.162l-1-4.676-297.148-0.02c-60.594 0-109.714-49.12-109.714-109.713V329.143c0-60.594 49.12-109.714 109.714-109.714h219.429l-0.004-63.413c-27.092-13.465-45.71-41.424-45.71-73.73C429.714 36.84 466.554 0 512 0z m265.143 621.714c-95.94 0-173.714 77.775-173.714 173.715s77.774 173.714 173.714 173.714 173.714-77.775 173.714-173.714c0-95.94-77.774-173.715-173.714-173.715z m-45.714 54.857h54.857v109.715h73.143v54.857h-128V676.57zM768 310.857H256c-9.378 0-17.106 7.06-18.163 16.153l-0.123 2.133v402.286c0 9.377 7.06 17.106 16.153 18.162l2.133 0.123h297.144l-0.115 0.568c20.958-104.614 113.332-183.425 224.114-183.425l5.002 0.054 4.153 0.126-0.012-237.894c0-9.378-7.06-17.107-16.153-18.163l-2.133-0.123zM91.429 402.286V640H18.286V402.286h73.143z m301.714 54.857c35.346 0 64 28.654 64 64 0 35.346-28.654 64-64 64-35.346 0-64-28.654-64-64 0-35.346 28.654-64 64-64z m237.714 0c35.346 0 64 28.654 64 64 0 35.346-28.654 64-64 64-35.346 0-64-28.654-64-64 0-35.346 28.654-64 64-64z" fill="#24b25b" p-id="78164"></path></svg>