<?xml version="1.0" standalone="no"?><!DOCTYPE svg PUBLIC "-//W3C//DTD SVG 1.1//EN" "http://www.w3.org/Graphics/SVG/1.1/DTD/svg11.dtd"><svg t="1761204734805" class="icon" viewBox="0 0 1024 1024" version="1.1" xmlns="http://www.w3.org/2000/svg" p-id="11615" xmlns:xlink="http://www.w3.org/1999/xlink" width="200" height="200"><path d="M918.528 450.56H153.088v70.144h765.44V450.56z" fill="#707070" p-id="11616"></path><path d="M570.88 102.912H500.736v765.44h70.144V102.912zM318.976 320a118.784 118.784 0 1 1 0-237.568 118.784 118.784 0 0 1 0 237.568z m0-166.4a48.64 48.64 0 1 0 48.64 51.2 51.2 51.2 0 0 0-48.64-51.2zM710.656 417.792a102.4 102.4 0 1 1 0-204.8 102.4 102.4 0 0 1 0 204.8z m0-131.584a30.72 30.72 0 1 0 0 61.44 30.72 30.72 0 0 0 0-61.44zM185.856 941.056a109.056 109.056 0 1 1 0-218.112 109.056 109.056 0 0 1 0 218.112z m0-147.968a38.912 38.912 0 1 0 0 77.824 38.912 38.912 0 0 0 0-77.824zM205.824 417.792a52.224 52.224 0 1 0 0-104.448 52.224 52.224 0 0 0 0 104.448zM412.672 423.936a52.224 52.224 0 1 0 0-104.448 52.224 52.224 0 0 0 0 104.448zM894.976 216.576a52.224 52.224 0 1 0 0-104.448 52.224 52.224 0 0 0 0 104.448zM894.976 765.952a52.224 52.224 0 1 0 0-104.448 52.224 52.224 0 0 0 0 104.448zM689.664 697.856a52.224 52.224 0 1 0 0-104.448 52.224 52.224 0 0 0 0 104.448zM686.592 907.776a52.224 52.224 0 1 0 0-104.448 52.224 52.224 0 0 0 0 104.448zM409.6 699.392a52.224 52.224 0 1 0 0-104.448 52.224 52.224 0 0 0 0 104.448z" fill="#707070" p-id="11617"></path></svg>