<?xml version="1.0" standalone="no"?><!DOCTYPE svg PUBLIC "-//W3C//DTD SVG 1.1//EN" "http://www.w3.org/Graphics/SVG/1.1/DTD/svg11.dtd"><svg t="1761030371873" class="icon" viewBox="0 0 1024 1024" version="1.1" xmlns="http://www.w3.org/2000/svg" p-id="98629" xmlns:xlink="http://www.w3.org/1999/xlink" width="200" height="200"><path d="M525.6 465m-194.7 0a194.7 194.7 0 1 0 389.4 0 194.7 194.7 0 1 0-389.4 0Z" fill="#24b25b" p-id="98630" data-spm-anchor-id="a313x.search_index.0.i73.18633a81rhSIE9" class=""></path><path d="M492.4 695.7c-139.6 0-253.1-113.5-253.1-253.1s113.5-253.1 253.1-253.1S745.5 303 745.5 442.6 632 695.7 492.4 695.7z m0-461.4c-114.9 0-208.4 93.5-208.4 208.4C284 557.5 377.5 651 492.4 651s208.4-93.5 208.4-208.4-93.5-208.3-208.4-208.3z" fill="#595857" p-id="98631"></path><path d="M835.2 794.7c-13 13-34.1 13-47.1 0L619.9 626.4l47.1-47.1 168.3 168.3c13 13 13 34.1-0.1 47.1z" fill="#515151" p-id="98632" data-spm-anchor-id="a313x.search_index.0.i74.18633a81rhSIE9" class="selected"></path></svg>