<?xml version="1.0" standalone="no"?><!DOCTYPE svg PUBLIC "-//W3C//DTD SVG 1.1//EN" "http://www.w3.org/Graphics/SVG/1.1/DTD/svg11.dtd"><svg t="1761029440336" class="icon" viewBox="0 0 1024 1024" version="1.1" xmlns="http://www.w3.org/2000/svg" p-id="92896" xmlns:xlink="http://www.w3.org/1999/xlink" width="200" height="200"><path d="M825.5 832.2h-627c-72.7 0-131.9-59.1-131.9-131.9V323.6c0-72.7 59.1-131.9 131.9-131.9h626.9c72.7 0 131.9 59.1 131.9 131.9v376.7c0 72.8-59.1 131.9-131.8 131.9z m-627-602.7c-51.9 0-94.2 42.2-94.2 94.2v376.7c0 51.9 42.3 94.2 94.2 94.2h626.9c51.9 0 94.2-42.2 94.2-94.2V323.6c0-51.9-42.3-94.2-94.2-94.2H198.5z" fill="#707070" p-id="92897"></path><path d="M247.6 646.7h528.8v37.7H247.6zM830.4 388.7h-75.3V351h75.3v37.7z m-131.8 0h-75.3V351h75.3v37.7z m-131.9 0h-75.3V351h75.3v37.7z m-131.8 0h-75.3V351h75.3v37.7z m-131.9 0h-75.3V351H303v37.7zM830.4 547.9h-75.3v-37.7h75.3v37.7z m-131.8 0h-75.3v-37.7h75.3v37.7z m-131.9 0h-75.3v-37.7h75.3v37.7z m-131.8 0h-75.3v-37.7h75.3v37.7z m-131.9 0h-75.3v-37.7H303v37.7z" fill="#707070" p-id="92898"></path></svg>