<?xml version="1.0" standalone="no"?><!DOCTYPE svg PUBLIC "-//W3C//DTD SVG 1.1//EN" "http://www.w3.org/Graphics/SVG/1.1/DTD/svg11.dtd"><svg t="1761029140458" class="icon" viewBox="0 0 1024 1024" version="1.1" xmlns="http://www.w3.org/2000/svg" p-id="84482" xmlns:xlink="http://www.w3.org/1999/xlink" width="200" height="200"><path d="M512 0c200.533333 0 362.666667 164.266667 362.666667 364.8 0 187.733333-140.8 411.733333-322.133334 441.6-21.333333 170.666667-170.666667 217.6-253.866666 217.6-23.466667 0-42.666667-19.2-42.666667-42.666667s19.2-42.666667 42.666667-42.666666c14.933333 0 145.066667-6.4 166.4-132.266667C288 772.266667 149.333333 550.4 149.333333 364.8 149.333333 164.266667 311.466667 0 512 0z m0 725.333333c147.2 0 277.333333-200.533333 277.333333-360.533333C789.333333 211.2 665.6 85.333333 512 85.333333S234.666667 211.2 234.666667 364.8C234.666667 524.8 364.8 725.333333 512 725.333333z" fill="#d81e06" p-id="84483"></path><path d="M512 128c-23.466667 0-42.666667 19.2-42.666667 42.666667s19.2 42.666667 42.666667 42.666666c59.733333 0 106.666667 46.933333 106.666667 106.666667 0 23.466667 19.2 42.666667 42.666666 42.666667s42.666667-19.2 42.666667-42.666667c0-106.666667-85.333333-192-192-192" fill="#d81e06" p-id="84484"></path></svg>