<?xml version="1.0" standalone="no"?><!DOCTYPE svg PUBLIC "-//W3C//DTD SVG 1.1//EN" "http://www.w3.org/Graphics/SVG/1.1/DTD/svg11.dtd"><svg t="1761206142471" class="icon" viewBox="0 0 1024 1024" version="1.1" xmlns="http://www.w3.org/2000/svg" p-id="28576" xmlns:xlink="http://www.w3.org/1999/xlink" width="200" height="200"><path d="M932.336712 948.236644c0-125.265936-54.314016-241.237559-149.24571-320.998692h0.978801l-17.128164-13.212959c-4.894007-3.913485-11.253636-5.874529-17.620146-5.874528-9.292592 0-17.618425 3.915206-22.992371 11.257076-9.786294 12.726138-7.341871 30.827943 5.379107 40.614237 90.526227 69.486298 142.887801 174.209446 142.887801 288.218306H149.40397c0-200.136502 162.460389-362.588289 362.59345-362.588289 154.638579 0 280.391335-125.761357 280.391335-280.391336s-125.757917-280.876435-280.391335-280.876435c-154.626537 0-280.386174 125.757917-280.386175 280.387895 0 54.315736 15.659102 106.67215 45.019704 152.180394 25.447116 39.146895 59.700004 70.95192 100.312521 93.464352-78.784051 26.912738-149.24571 77.313269-199.647961 143.859722-56.271619 73.403224-85.63222 161.481588-85.632221 253.967137v51.381053h840.671703l0.001721-51.387933zM288.863386 304.766758c0-122.824953 99.82226-222.648934 222.645493-222.648933s222.650654 99.82226 222.650654 222.648933c0 122.824953-99.827421 222.648934-222.650654 222.648934-122.332972 0.48338-222.645493-99.33888-222.645493-222.648934z" p-id="28577" fill="#707070"></path></svg>