<?xml version="1.0" standalone="no"?><!DOCTYPE svg PUBLIC "-//W3C//DTD SVG 1.1//EN" "http://www.w3.org/Graphics/SVG/1.1/DTD/svg11.dtd"><svg t="1761029493984" class="icon" viewBox="0 0 1024 1024" version="1.1" xmlns="http://www.w3.org/2000/svg" p-id="94144" xmlns:xlink="http://www.w3.org/1999/xlink" width="200" height="200"><path d="M572.299636 951.179636a23.272727 23.272727 0 0 1-19.549091-10.635636l-178.315636-275.572364-275.549091-178.315636a23.296 23.296 0 0 1 4.165818-41.216L860.043636 149.248a23.249455 23.249455 0 0 1 30.161455 30.138182L593.989818 936.378182a23.296 23.296 0 0 1-21.690182 14.801454zM162.304 472.250182l241.617455 156.369454c2.769455 1.792 5.12 4.142545 6.912 6.888728l156.346181 241.640727L827.461818 211.968 162.304 472.250182z" fill="#707070" p-id="94145"></path><path d="M391.284364 671.418182a23.249455 23.249455 0 0 1-16.453819-39.726546L852.061091 154.461091a23.249455 23.249455 0 1 1 32.907636 32.907636L407.738182 664.599273a23.202909 23.202909 0 0 1-16.453818 6.818909z" fill="#707070" p-id="94146"></path></svg>