<?xml version="1.0" standalone="no"?><!DOCTYPE svg PUBLIC "-//W3C//DTD SVG 1.1//EN" "http://www.w3.org/Graphics/SVG/1.1/DTD/svg11.dtd"><svg t="1761033343045" class="icon" viewBox="0 0 1024 1024" version="1.1" xmlns="http://www.w3.org/2000/svg" p-id="108640" xmlns:xlink="http://www.w3.org/1999/xlink" width="200" height="200"><path d="M437.333333 234.666667a138.666667 138.666667 0 1 0 0 277.333333 138.666667 138.666667 0 0 0 0-277.333333z m0 64a74.666667 74.666667 0 1 1 0 149.333333 74.666667 74.666667 0 0 1 0-149.333333z m373.333334 21.333333V341.333333a21.333333 21.333333 0 0 1-21.333334 21.333334H640a21.333333 21.333333 0 0 1-21.333333-21.333334v-21.333333A21.333333 21.333333 0 0 1 640 298.666667h149.333333a21.333333 21.333333 0 0 1 21.333334 21.333333z m-373.418667 213.333333a223.488 223.488 0 0 1 224.085333 224V768a21.333333 21.333333 0 0 1-21.333333 21.333333h-21.333333a21.333333 21.333333 0 0 1-21.333334-21.333333v-10.666667c0-89.6-72.106667-160-160.085333-160A159.018667 159.018667 0 0 0 277.333333 757.333333V768a21.333333 21.333333 0 0 1-21.333333 21.333333h-21.333333A21.333333 21.333333 0 0 1 213.333333 768v-10.666667a223.018667 223.018667 0 0 1 223.914667-224z m352.085333 21.333334a21.333333 21.333333 0 0 1 21.333334 21.333333v21.333333a21.333333 21.333333 0 0 1-21.333334 21.333334h-117.333333a21.333333 21.333333 0 0 1-21.333333-21.333334v-21.333333a21.333333 21.333333 0 0 1 21.333333-21.333333h117.333333z m21.333334-106.666667v21.333333a21.333333 21.333333 0 0 1-21.333334 21.333334h-170.666666a21.333333 21.333333 0 0 1-21.333334-21.333334v-21.333333a21.333333 21.333333 0 0 1 21.333334-21.333333h170.666666a21.333333 21.333333 0 0 1 21.333334 21.333333z" fill="#24b25b" p-id="108641"></path></svg>