<?xml version="1.0" standalone="no"?><!DOCTYPE svg PUBLIC "-//W3C//DTD SVG 1.1//EN" "http://www.w3.org/Graphics/SVG/1.1/DTD/svg11.dtd"><svg t="1761030496118" class="icon" viewBox="0 0 1024 1024" version="1.1" xmlns="http://www.w3.org/2000/svg" p-id="103707" xmlns:xlink="http://www.w3.org/1999/xlink" width="200" height="200"><path d="M713.8048 803.5072c8.1664 13.7984 3.584 32.256-10.7264 40.0384a28.8768 28.8768 0 0 1-39.7824-10.752c-8.5504-13.7728-3.6096-31.8208 10.24-39.9872a29.568 29.568 0 0 1 40.2688 10.7008z m-172.7744 62.4384c0 15.9744-13.184 29.312-29.7472 29.312-15.9488 0-29.312-13.056-29.312-29.312v-20.5312a29.568 29.568 0 0 1 59.0592 0v20.5312z m-180.8384-33.1264a29.2352 29.2352 0 0 1-40.2432 10.8544 29.056 29.056 0 0 1-10.88-40.2432l21.8112-38.144a30.1312 30.1312 0 0 1 40.6272-10.8544c13.7984 8.1664 18.8928 26.368 10.496 40.2432l-21.8112 38.144z m-140.3904-118.5024c-14.2336 7.936-32.4352 3.1488-40.2432-10.8544a29.2864 29.2864 0 0 1 10.496-40.2432l58.624-33.9712c14.0032-7.7824 32.2048-3.3536 40.2432 10.88 7.936 13.7984 3.072 32.0768-10.88 40.2432l-58.24 33.9456z m-62.336-173.2096a29.2608 29.2608 0 0 1-29.312-29.2864c0-16.3584 12.9536-29.5424 29.312-29.5424h91.2896c16.3328 0 29.2864 13.184 29.2864 29.312 0 16.3328-12.9536 29.5168-29.2864 29.5168H157.44z m32.6656-181.1456a28.7232 28.7232 0 0 1-10.496-40.0128c7.808-14.2336 25.9328-19.0464 40.2432-10.88l99.2512 57.6512c14.0032 8.0128 18.6624 25.9328 10.8544 39.7824a29.5424 29.5424 0 0 1-40.192 10.88L190.1568 359.936z m118.9376-140.288l69.12 119.9872c8.3968 14.0032 26.368 19.0208 40.3968 10.7008 14.0032-7.936 18.6624-26.1376 10.496-40.2432l-69.4272-119.7568a29.1072 29.1072 0 0 0-39.7824-10.7264 29.2608 29.2608 0 0 0-10.8032 40.0384z m172.9792-62.0032c0-15.9488 13.4144-29.5168 29.312-29.5168 16.3328 0 29.7472 13.2608 29.7472 29.5168v138.2144c0 16.3328-13.184 29.5168-29.7472 29.7472a29.44 29.44 0 0 1-29.312-29.7472V157.6704z m180.864 32.6912a29.5168 29.5168 0 0 1 40.2432-10.88c14.2336 7.936 19.2512 25.9328 10.88 40.2432l-69.2736 120.0128a29.5168 29.5168 0 0 1-40.2432 10.8544 29.952 29.952 0 0 1-10.7008-40.448l69.0944-119.808z m140.7488 118.7072L683.52 378.3168a29.568 29.568 0 0 0-10.88 40.2688 30.208 30.208 0 0 0 40.2688 10.7008l120.2176-69.248c13.7728-7.936 18.8672-25.9328 10.496-40.0128-8.1152-14.2592-26.1632-19.3536-39.936-10.9568z m61.7472 173.2096c16.512 0 29.5424 13.184 29.312 29.5424 0 16.128-12.7232 29.2864-29.312 29.2864h-138.3424a29.5936 29.5936 0 0 1-29.3888-29.5168c0-16.128 13.4144-29.312 29.3888-29.312h138.3424z" fill="#515151" p-id="103708"></path></svg>