<?xml version="1.0" standalone="no"?><!DOCTYPE svg PUBLIC "-//W3C//DTD SVG 1.1//EN" "http://www.w3.org/Graphics/SVG/1.1/DTD/svg11.dtd"><svg t="1761029279878" class="icon" viewBox="0 0 1024 1024" version="1.1" xmlns="http://www.w3.org/2000/svg" p-id="88618" xmlns:xlink="http://www.w3.org/1999/xlink" width="200" height="200"><path d="M516.4 517.4c125 0 226.7-101.7 226.7-226.7 0-18.5-15-33.4-33.4-33.4s-33.4 15-33.4 33.4c0 88.2-71.7 159.9-159.9 159.9s-159.9-71.7-159.9-159.9 71.7-159.9 159.9-159.9c22.7 0 44.6 4.6 65.1 13.8 16.8 7.5 36.6 0 44.1-16.9 7.5-16.8 0-36.6-16.9-44.1-29.2-13-60.2-19.6-92.4-19.6-125 0-226.7 101.7-226.7 226.7s101.8 226.7 226.8 226.7zM619.8 556.8H413c-155.8 0-282.5 126.7-282.5 282.5v55.5c0 18.5 15 33.4 33.4 33.4s33.4-15 33.4-33.4v-55.5c0-118.9 96.8-215.7 215.7-215.7h206.7c118.9 0 215.7 96.8 215.7 215.7v55.5c0 18.5 15 33.4 33.4 33.4 18.5 0 33.4-15 33.4-33.4v-55.5c0.1-155.8-126.6-282.5-282.4-282.5z" fill="#1296db" p-id="88619"></path><path d="M674.7 190.9m-33.4 0a33.4 33.4 0 1 0 66.8 0 33.4 33.4 0 1 0-66.8 0Z" fill="#1296db" p-id="88620"></path></svg>