<?xml version="1.0" standalone="no"?><!DOCTYPE svg PUBLIC "-//W3C//DTD SVG 1.1//EN" "http://www.w3.org/Graphics/SVG/1.1/DTD/svg11.dtd"><svg t="1761034670116" class="icon" viewBox="0 0 1821 1024" version="1.1" xmlns="http://www.w3.org/2000/svg" p-id="122242" xmlns:xlink="http://www.w3.org/1999/xlink" width="355.6640625" height="200"><path d="M1193.066667 626.266667c0-13.6-9.6-23.2-23.2-23.2s-23.2 9.6-23.2 23.2v130.133333c0 13.6 9.6 23.2 23.2 23.2H1300c13.6 0 23.2-9.6 23.2-23.2s-9.6-23.2-23.2-23.2h-106.933333v-106.933333z m0 0" fill="#999999" p-id="122243"></path><path d="M1169.866667 537.866667c-120.133333 0-217.866667 97.866667-217.866667 217.866666 0 120.133333 97.866667 217.866667 217.866667 217.866667 120.133333 0 217.866667-97.866667 217.866666-217.866667 0.133333-120-97.733333-217.866667-217.866666-217.866666z m172 218.4c0 93.2-78.666667 172-172 172-93.2 0-172-78.666667-172-172 0-93.2 78.666667-172 172-172s172 78.8 172 172z m0 0" fill="#61C6F1" p-id="122244"></path><path d="M963.866667 948.933333c0-13.733333-11.2-24.933333-24.933334-24.933333h-402.666666c-31.866667 0-49.2-21.733333-49.2-54V154.933333c0-31.866667 16.933333-56.266667 49.2-56.266666H1121.333333c31.866667 0 56 23.866667 56 56.266666v310.666667c0 13.466667 10.933333 24.533333 24.533334 24.533333 13.333333 0 24.133333-10.8 24.133333-24.133333V122.533333C1225.333333 82.933333 1193.066667 50.666667 1153.466667 50.666667H510.666667c-43.333333 0-78.666667 35.466667-78.666667 78.666666v766.133334c0 43.333333 35.466667 78.666667 78.666667 78.666666h428c14 0 25.2-11.2 25.2-25.2z" fill="#61C6F1" p-id="122245"></path><path d="M812.4 709.466667H590.133333c-23.866667 0-36 18-25.466666 39.6 3.866667 7.866667 11.066667 13.6 20.266666 13.6h223.2c16.4 0 29.066667-13.466667 27.2-29.866667-1.466667-12-10.533333-23.333333-22.933333-23.333333zM584.8 313.333333H1072c13.6 0 23.2-15.2 23.2-28.8 0-13.6-9.6-27.733333-23.2-27.733333H584.8c-13.6 0-23.2 14.133333-23.2 27.733333 0.533333 13.466667 10 28.8 23.2 28.8z m292.666667 173.866667H588.8c-14.266667 0-26.8 11.6-27.2 25.866667-0.266667 13.866667 9.333333 27.333333 23.2 27.333333H872c25.866667 0 37.466667-18.933333 24.533333-41.333333-3.866667-6.933333-10.8-11.866667-19.066666-11.866667z m0 0" fill="#999999" p-id="122246"></path></svg>