<?xml version="1.0" standalone="no"?><!DOCTYPE svg PUBLIC "-//W3C//DTD SVG 1.1//EN" "http://www.w3.org/Graphics/SVG/1.1/DTD/svg11.dtd"><svg t="1761030673597" class="icon" viewBox="0 0 1024 1024" version="1.1" xmlns="http://www.w3.org/2000/svg" p-id="106235" data-spm-anchor-id="a313x.search_index.0.i84.18633a81rhSIE9" xmlns:xlink="http://www.w3.org/1999/xlink" width="200" height="200"><path d="M236.8 64h473.088l186.112 197.12v587.008c0 61.952-54.784 112.128-114.944 112.128H236.8C176.896 960 128 909.824 128 848.128V176.128C128 114.176 176.64 64 236.8 64z m435.2 64v133.888c0 14.336 11.776 26.112 26.112 26.112H832L672 128z m106.752 768c29.44 0 53.248-24.576 53.248-54.784V347.392h-160c-29.44 0-53.248-24.576-53.248-54.784V128H245.248C215.808 128 192 152.576 192 182.784v658.432c0 30.208 23.808 54.784 53.248 54.784h533.504z" p-id="106236" data-spm-anchor-id="a313x.search_index.0.i86.18633a81rhSIE9" class="selected" fill="#515151"></path><path d="M665.088 531.456l-6.144 31.232h-68.608l-16.128 79.36h72.192l-6.144 30.72h-72.704l-22.528 105.728h-36.352l22.528-105.728h-66.56l-22.528 105.728h-36.352l22.528-105.728h-68.608l6.144-30.72h69.12l16.128-79.36h-72.704l6.144-31.232h72.704l22.272-107.008h36.352l-22.272 107.008h66.56l22.272-107.008h36.352l-22.272 107.008h68.608z m-111.104 31.232h-66.56l-16.128 79.36h66.56l16.128-79.36z" p-id="106237" data-spm-anchor-id="a313x.search_index.0.i85.18633a81rhSIE9" class="selected" fill="#515151"></path></svg>