<?xml version="1.0" standalone="no"?><!DOCTYPE svg PUBLIC "-//W3C//DTD SVG 1.1//EN" "http://www.w3.org/Graphics/SVG/1.1/DTD/svg11.dtd"><svg t="1761028221738" class="icon" viewBox="0 0 1024 1024" version="1.1" xmlns="http://www.w3.org/2000/svg" p-id="63591" xmlns:xlink="http://www.w3.org/1999/xlink" width="200" height="200"><path d="M902.746353 463.932235a30.117647 30.117647 0 0 1 30.840471 29.997177v270.034823c0 33.129412-26.925176 59.994353-59.994353 59.994353H193.536a60.054588 60.054588 0 0 1-59.994353-59.994353v-269.251764c0-16.444235 12.830118-30.238118 29.214118-30.72a30.117647 30.117647 0 0 1 30.780235 29.936941v240.037647c0 16.564706 13.432471 29.997176 30.057412 29.997176h620.001882a29.936941 29.936941 0 0 0 29.997177-29.997176V494.652235c0-16.384 12.769882-30.177882 29.153882-30.72z m-397.793882-318.644706a40.056471 40.056471 0 0 1 56.621176 0l162.635294 162.454589a29.997176 29.997176 0 0 1-42.345412 42.405647L563.501176 231.785412l0.060236 337.136941c0 12.408471-13.372235 22.467765-29.997177 22.467765s-29.997176-10.059294-29.997176-22.467765V232.026353L385.505882 350.147765a29.936941 29.936941 0 0 1-38.369882 3.493647l-4.216471-3.493647a30.117647 30.117647 0 0 1 0-42.405647z" fill="#707070" p-id="63592"></path></svg>