<?xml version="1.0" standalone="no"?><!DOCTYPE svg PUBLIC "-//W3C//DTD SVG 1.1//EN" "http://www.w3.org/Graphics/SVG/1.1/DTD/svg11.dtd"><svg t="1761029344963" class="icon" viewBox="0 0 1024 1024" version="1.1" xmlns="http://www.w3.org/2000/svg" p-id="89654" xmlns:xlink="http://www.w3.org/1999/xlink" width="200" height="200"><path d="M551.557889 78.312604a278.444815 278.444815 0 0 1 390.539326 3.412314 278.956662 278.956662 0 0 1 3.412314 390.79525l-0.554501 0.511847-141.525719 141.696335a278.572776 278.572776 0 0 1-330.610564 47.559125 278.658084 278.658084 0 0 1-89.487932-77.630141 42.653924 42.653924 0 0 1 68.331586-51.099401 193.264929 193.264929 0 0 0 222.226943 65.388465 193.264929 193.264929 0 0 0 69.184665-44.488042l141.269795-141.440412a193.648814 193.648814 0 0 0-2.601889-271.023032 193.136967 193.136967 0 0 0-270.681801-2.559235L530.188273 219.966285a42.653924 42.653924 0 1 1-60.142033-60.44061l81.127763-80.786532 0.42654-0.426539z" p-id="89655" fill="#24b25b"></path><path d="M319.904429 344.856974a278.359507 278.359507 0 0 1 320.458929 94.265172 42.653924 42.653924 0 0 1-68.331586 51.056746 193.350237 193.350237 0 0 0-140.928564-77.118294 193.051659 193.051659 0 0 0-150.483043 56.217872l-141.269796 141.397757a193.648814 193.648814 0 0 0 2.601889 271.023032 193.136967 193.136967 0 0 0 270.639147 2.601889l80.402646-80.487954a42.653924 42.653924 0 0 1 60.355303 60.312648l-80.701224 80.743878-0.511847 0.511847a278.444815 278.444815 0 0 1-390.539327-3.412314 278.956662 278.956662 0 0 1-3.412314-390.79525l0.554501-0.511847 141.52572-141.696335A278.572776 278.572776 0 0 1 319.904429 344.856974z" p-id="89656" fill="#24b25b"></path></svg>