<?xml version="1.0" standalone="no"?><!DOCTYPE svg PUBLIC "-//W3C//DTD SVG 1.1//EN" "http://www.w3.org/Graphics/SVG/1.1/DTD/svg11.dtd"><svg t="1761028357823" class="icon" viewBox="0 0 1024 1024" version="1.1" xmlns="http://www.w3.org/2000/svg" p-id="68810" xmlns:xlink="http://www.w3.org/1999/xlink" width="200" height="200"><path d="M950.857143 777.654857l-73.142857-67.401143V182.857143a36.571429 36.571429 0 0 0-36.571429-36.571429H182.857143a36.571429 36.571429 0 0 0-36.571429 36.571429v658.285714a36.571429 36.571429 0 0 0 36.571429 36.571429h516.022857l73.508571 73.142857H146.285714a73.142857 73.142857 0 0 1-73.142857-73.142857V146.285714a73.142857 73.142857 0 0 1 73.142857-73.142857h731.428572a73.142857 73.142857 0 0 1 73.142857 73.142857v631.369143z m-330.532572-106.678857A250.770286 250.770286 0 0 1 292.864 292.864a250.733714 250.733714 0 0 1 378.148571 327.460571l232.777143 232.813715a35.84 35.84 0 1 1-50.651428 50.651428l-232.813715-232.813714z m-15.579428-66.230857a182.857143 182.857143 0 1 0-258.633143-258.633143 182.857143 182.857143 0 0 0 258.633143 258.633143z" fill="#515151" p-id="68811"></path></svg>