<?xml version="1.0" standalone="no"?><!DOCTYPE svg PUBLIC "-//W3C//DTD SVG 1.1//EN" "http://www.w3.org/Graphics/SVG/1.1/DTD/svg11.dtd"><svg t="1761030297379" class="icon" viewBox="0 0 1024 1024" version="1.1" xmlns="http://www.w3.org/2000/svg" p-id="95256" xmlns:xlink="http://www.w3.org/1999/xlink" width="200" height="200"><path d="M1009.804185 942.765861 768.661056 699.823759c24.320918-30.532387 44.309158-64.108087 59.618842-100.304474 22.477944-53.144384 33.875528-109.567441 33.875528-167.706583s-11.397584-114.563222-33.875528-167.70556c-21.700231-51.306526-52.757574-97.374748-92.307336-136.924509-39.548738-39.549761-85.61696-70.607104-136.923486-92.307336C545.905716 12.398378 489.481635 1.000793 431.343517 1.000793S316.780295 12.398378 263.636934 34.875299c-51.306526 21.701255-97.373725 52.757574-136.924509 92.307336-39.548738 39.549761-70.606081 85.617983-92.306312 136.924509C11.928169 317.249481 0.531608 373.674585 0.531608 431.812703s11.397584 114.562199 33.875528 167.70556c21.700231 51.307549 52.757574 97.374748 92.306312 136.924509 39.549761 39.549761 85.617983 70.607104 136.924509 92.307336 53.143361 22.477944 109.567441 33.875528 167.706583 33.875528s114.562199-11.397584 167.706583-33.875528c37.399795-15.818267 71.999824-36.631292 103.33653-62.059428L942.987407 1009.087359c9.201569 9.271154 21.303188 13.911848 33.408901 13.911848 11.988032 0 23.980157-4.550643 33.159214-13.664208C1028.007779 991.020888 1028.118296 961.217095 1009.804185 942.765861zM431.343517 768.480442c-185.639001 0-336.667739-151.028739-336.667739-336.667739s151.028739-336.667739 336.667739-336.667739 336.667739 151.028739 336.667739 336.667739S616.982518 768.480442 431.343517 768.480442z" fill="#515151" p-id="95257"></path></svg>