<?xml version="1.0" standalone="no"?><!DOCTYPE svg PUBLIC "-//W3C//DTD SVG 1.1//EN" "http://www.w3.org/Graphics/SVG/1.1/DTD/svg11.dtd"><svg t="1761204565002" class="icon" viewBox="0 0 1056 1024" version="1.1" xmlns="http://www.w3.org/2000/svg" p-id="7982" xmlns:xlink="http://www.w3.org/1999/xlink" width="206.25" height="200"><path d="M718.016 32l179.456 186.144v741.28a32 32 0 0 1-32 32H176a32 32 0 0 1-32-32V64a32 32 0 0 1 32-32h542.016z m147.424 199.008L704.416 64H176v895.424h689.472l-0.032-728.416z" fill="#707070" p-id="7983"></path><path d="M717.12 58.144v154.624a16 16 0 0 0 13.12 15.744l2.88 0.256h148.8v32h-148.8a48 48 0 0 1-47.776-43.36l-0.224-4.64V58.144h32zM654.016 400.064v32h-384v-32zM718.016 577.568v32h-448v-32zM718.016 755.072v32h-448v-32zM304 58.144v160.224l52.096-38.464 57.664 39.744V58.144h32v222.464L356.768 219.2 272 281.856V58.144z" fill="#707070" p-id="7984"></path></svg>