<?xml version="1.0" standalone="no"?><!DOCTYPE svg PUBLIC "-//W3C//DTD SVG 1.1//EN" "http://www.w3.org/Graphics/SVG/1.1/DTD/svg11.dtd"><svg t="1761207463114" class="icon" viewBox="0 0 1365 1024" version="1.1" xmlns="http://www.w3.org/2000/svg" p-id="38468" xmlns:xlink="http://www.w3.org/1999/xlink" width="266.6015625" height="200"><path d="M513.86903 864.132996c-21.631324 0-32.382988-10.623668-32.382988-31.999v-510.704041c0-21.375332 10.751664-31.999 32.382988-31.999h120.444236c21.631324 0 32.382988 10.623668 32.382988 31.999v510.704041c0 21.375332-10.751664 31.999-32.382988 31.999h-120.444236z m0 0" fill="#2196F3" p-id="38469"></path><path d="M893.505166 296.470735c13.183588 13.311584 17.151464 33.150964 9.855692 50.430424-7.167776 17.27946-24.063248 28.671104-43.006656 28.927096H287.700097C268.884685 375.572263 251.989213 364.180619 244.821437 346.901159c-7.167776-17.27946-3.327896-37.11884 9.855692-50.430424l287.607013-283.51114c18.047436-17.27946 46.71854-17.27946 64.765976 0L893.505166 296.470735zM1018.429262 1024H129.625037c-38.270804-3.583888-67.581888-35.326896-67.581888-73.341708 0-38.014812 29.311084-69.75782 67.581888-73.213712h888.804225c38.270804 3.583888 67.581888 35.326896 67.581888 73.213712 0 38.014812-29.183088 69.75782-67.581888 73.341708z" fill="#2196F3" p-id="38470"></path></svg>