<?xml version="1.0" standalone="no"?><!DOCTYPE svg PUBLIC "-//W3C//DTD SVG 1.1//EN" "http://www.w3.org/Graphics/SVG/1.1/DTD/svg11.dtd"><svg t="1761205624654" class="icon" viewBox="0 0 1024 1024" version="1.1" xmlns="http://www.w3.org/2000/svg" p-id="20362" xmlns:xlink="http://www.w3.org/1999/xlink" width="200" height="200"><path d="M890.2656 971.776H151.7568c-68.608 0-124.5184-55.9104-124.5184-124.5184V223.0272h863.232c68.608 0 124.5184 55.9104 124.5184 124.5184v499.5072c0 68.8128-55.9104 124.7232-124.7232 124.7232zM66.1504 261.9392v585.1136c0 47.3088 38.5024 85.6064 85.6064 85.6064h738.5088c47.3088 0 85.6064-38.5024 85.6064-85.6064V347.7504c0-47.3088-38.5024-85.6064-85.6064-85.6064H66.1504z" fill="#24b25b" p-id="20363"></path><path d="M576.7168 261.9392H27.2384V197.0176c0-70.656 57.5488-128.2048 128.2048-128.2048h245.76c40.5504 0 78.2336 21.9136 98.304 57.1392l77.2096 135.9872z m-510.5664-38.912H509.952l-44.2368-77.824c-13.1072-23.1424-37.888-37.4784-64.512-37.4784h-245.76c-49.152 0-89.2928 40.1408-89.2928 89.2928v26.0096zM841.9328 473.2928H166.912c-10.6496 0-19.456-8.8064-19.456-19.456s8.8064-19.456 19.456-19.456h675.0208c10.6496 0 19.456 8.8064 19.456 19.456s-8.8064 19.456-19.456 19.456zM521.0112 646.7584h-354.304c-10.6496 0-19.456-8.8064-19.456-19.456s8.8064-19.456 19.456-19.456h354.304c10.6496 0 19.456 8.8064 19.456 19.456s-8.6016 19.456-19.456 19.456z" fill="#24b25b" p-id="20364"></path></svg>