<?xml version="1.0" standalone="no"?><!DOCTYPE svg PUBLIC "-//W3C//DTD SVG 1.1//EN" "http://www.w3.org/Graphics/SVG/1.1/DTD/svg11.dtd"><svg t="1761205092694" class="icon" viewBox="0 0 1024 1024" version="1.1" xmlns="http://www.w3.org/2000/svg" p-id="17722" xmlns:xlink="http://www.w3.org/1999/xlink" width="200" height="200"><path d="M206.2 910c-10.4 0-20.9-3.6-29.5-11-54.9-47.6-98.3-105.1-129-170.7C16.1 660.3 0 587.5 0 512c0-69.1 13.5-136.2 40.3-199.3C66 251.7 103 197 150 150c47-47 101.7-84 162.7-109.7C375.8 13.5 442.9 0 512 0s136.2 13.5 199.3 40.3C772.3 66 827 103 874 150c47 47 83.9 101.8 109.7 162.7 26.7 63.2 40.3 130.2 40.3 199.3 0 74.5-15.7 146.4-46.6 213.6-29.8 64.9-72.2 122-125.8 169.5-18.6 16.5-47 14.8-63.5-3.8s-14.8-47 3.8-63.5c44.3-39.3 79.2-86.3 103.8-139.8 25.4-55.3 38.3-114.6 38.3-176 0-57-11.2-112.3-33.1-164.2-21.3-50.2-51.7-95.4-90.5-134.2-38.8-38.8-83.9-69.2-134.2-90.5C624.2 101.2 569 90 512 90c-57 0-112.3 11.2-164.2 33.1-50.2 21.3-95.4 51.7-134.2 90.5-38.8 38.8-69.2 83.9-90.5 134.2C101.2 399.7 90 455 90 512c0 62.3 13.2 122.3 39.4 178.2 24.9 53.4 61.7 102 106.4 140.8 18.8 16.3 20.8 44.7 4.5 63.5-8.9 10.2-21.5 15.5-34.1 15.5z" fill="#24b25b" p-id="17723"></path><path d="M579.6 873.5c0 37.3-12.5 81.5-67.6 81.5-56.4 0-67.6-44.2-67.6-81.5s30.2-374 67.6-374 67.6 336.7 67.6 374z" fill="#24b25b" p-id="17724"></path></svg>