<?xml version="1.0" standalone="no"?><!DOCTYPE svg PUBLIC "-//W3C//DTD SVG 1.1//EN" "http://www.w3.org/Graphics/SVG/1.1/DTD/svg11.dtd"><svg t="1761204849565" class="icon" viewBox="0 0 1024 1024" version="1.1" xmlns="http://www.w3.org/2000/svg" p-id="14559" xmlns:xlink="http://www.w3.org/1999/xlink" width="200" height="200"><path d="M512 0C296.192 0 64 65.047273 64 208.011636v608C64 958.882909 296.192 1024 512 1024c215.784727 0 448-65.117091 448-207.988364V208.011636C960 65.047273 727.738182 0 512 0z m384 816.011636c0 79.476364-171.938909 143.988364-384 143.988364-212.084364 0-384-64.512-384-143.988364v-119.552c66.094545 68.119273 225.605818 103.540364 384 103.540364 158.394182 0 317.905455-35.421091 384-103.563636v119.575272z m0-192h-0.116364c0 0.302545 0.116364 0.651636 0.116364 0.977455C896 704 724.061091 768 512 768S128 704 128 624.989091c0-0.325818 0.139636-0.674909 0.139636-0.977455H128v-119.552c66.094545 68.119273 225.605818 103.540364 384 103.540364 158.394182 0 317.905455-35.421091 384-103.563636v119.575272z m0-192h-0.116364c0 0.302545 0.116364 0.651636 0.116364 0.977455C896 512 724.061091 576 512 576S128 512 128 432.989091c0-0.325818 0.139636-0.674909 0.139636-0.977455H128v-109.963636c83.874909 63.906909 237.614545 93.952 384 93.952 146.385455 0 300.125091-30.045091 384-93.952v109.963636zM512 352c-212.084364 0-384-64.512-384-143.988364C128 128.442182 299.915636 64 512 64c212.061091 0 384 64.465455 384 144.011636 0 79.476364-171.938909 143.988364-384 143.988364zM768 832a32 32 0 0 0 64 0 32 32 0 0 0-64 0z m0-192a32 32 0 0 0 64 0 32 32 0 0 0-64 0z m0-192a32 32 0 0 0 64 0 32 32 0 0 0-64 0z" fill="#707070" p-id="14560"></path></svg>