<?xml version="1.0" standalone="no"?><!DOCTYPE svg PUBLIC "-//W3C//DTD SVG 1.1//EN" "http://www.w3.org/Graphics/SVG/1.1/DTD/svg11.dtd"><svg t="1761205672340" class="icon" viewBox="0 0 1024 1024" version="1.1" xmlns="http://www.w3.org/2000/svg" p-id="21943" xmlns:xlink="http://www.w3.org/1999/xlink" width="200" height="200"><path d="M526.50628 9.811934l399.918224 177.773037a56.830485 56.830485 0 0 1 32.767126 40.958908 27.590375 27.590375 0 0 1 1.706622 5.916287l0.511986 5.119863v212.644996a28.443686 28.443686 0 0 1-56.432273 5.119864l-0.455099-5.119864-0.056887-150.922198-377.959699 167.98841a113.774744 113.774744 0 0 1-92.441979 0L56.901025 301.644152v403.957228a85.331058 85.331058 0 0 0 42.267317 73.669146l7.281584 3.811454 389.052736 179.593433a28.443686 28.443686 0 0 1-19.057269 53.360355l-4.835427-1.706621-388.995849-179.593433a142.21843 142.21843 0 0 1-82.202252-118.780833L0.013653 705.60138V239.580029c0-1.934171 0.170662-3.754567 0.568874-5.574962a57.456246 57.456246 0 0 1 33.563549-46.420096L434.064301 9.811934a113.774744 113.774744 0 0 1 92.441979 0z m287.281228 474.383794a56.887372 56.887372 0 0 1 49.321351 28.443686l109.337529 189.434948a56.887372 56.887372 0 0 1 0 56.887372l-109.337529 189.434949a56.887372 56.887372 0 0 1-49.264464 28.443686H595.055563a56.887372 56.887372 0 0 1-49.264464-28.443686l-109.337529-189.434949a56.887372 56.887372 0 0 1 0-56.887372l109.337529-189.434948a56.887372 56.887372 0 0 1 49.264464-28.443686h218.788832z m0 56.887372H595.055563l-109.337529 189.434948 109.337529 189.434949h218.788832l109.337529-189.434949-109.337529-189.434948z m-102.681706 96.708532a85.331058 85.331058 0 1 1 0 170.662116 85.331058 85.331058 0 0 1 0-170.662116z m0 56.887372a28.443686 28.443686 0 1 0 0 56.887372 28.443686 28.443686 0 0 0 0-56.887372zM463.645734 59.417722l-6.428273 2.38927-400.031999 177.773037 400.031999 177.773037a56.887372 56.887372 0 0 0 39.764273 2.38927l6.428273-2.38927 399.918224-177.773037-399.918224-177.773037a56.887372 56.887372 0 0 0-39.82116-2.38927z" fill="#24b25b" p-id="21944"></path></svg>