<?xml version="1.0" standalone="no"?><!DOCTYPE svg PUBLIC "-//W3C//DTD SVG 1.1//EN" "http://www.w3.org/Graphics/SVG/1.1/DTD/svg11.dtd"><svg t="1761024651190" class="icon" viewBox="0 0 1024 1024" version="1.1" xmlns="http://www.w3.org/2000/svg" p-id="24808" xmlns:xlink="http://www.w3.org/1999/xlink" width="200" height="200"><path d="M501.76 579.584c-9.216 0-19.456 1.024-30.72 2.048-41.984 3.072-83.968 9.216-123.904 19.456-99.328 25.6-171.008 67.584-211.968 123.904-18.432 24.576-32.768 61.44-44.032 106.496-7.168 27.648-12.288 57.344-16.384 87.04-1.024 10.24-3.072 19.456-3.072 28.672-1.024 5.12-1.024 9.216-1.024 11.264-1.024 16.384 10.24 29.696 26.624 31.744s29.696-10.24 31.744-26.624c0-2.048 0-5.12 1.024-10.24 1.024-8.192 2.048-17.408 3.072-26.624 4.096-27.648 9.216-55.296 15.36-80.896 9.216-37.888 21.504-68.608 33.792-86.016 32.768-44.032 93.184-79.872 180.224-102.4 35.84-9.216 74.752-15.36 113.664-17.408 19.456-1.024 36.864-2.048 51.2-2.048 15.36 0 32.768 1.024 51.2 2.048 38.912 3.072 77.824 8.192 113.664 17.408 86.016 20.48 147.456 56.32 179.2 100.352 13.312 17.408 24.576 47.104 33.792 86.016 6.144 25.6 11.264 53.248 15.36 80.896 1.024 9.216 2.048 18.432 3.072 26.624 1.024 5.12 1.024 8.192 1.024 10.24 1.024 16.384 15.36 27.648 31.744 26.624 16.384-1.024 27.648-15.36 26.624-31.744 0-2.048-1.024-6.144-1.024-11.264-1.024-8.192-2.048-18.432-4.096-28.672-4.096-29.696-9.216-59.392-16.384-87.04-11.264-45.056-25.6-80.896-44.032-105.472-40.96-56.32-113.664-98.304-212.992-123.904-39.936-10.24-81.92-16.384-123.904-19.456-11.264-1.024-21.504-1.024-30.72-2.048h-47.104s-1.024 0-1.024 1.024zM526.336 478.208c96.256 0 175.104-77.824 175.104-174.08s-78.848-174.08-175.104-174.08c-96.256 0-175.104 77.824-175.104 174.08s77.824 174.08 175.104 174.08z m0 58.368c-129.024 0-233.472-103.424-233.472-231.424 0-128 104.448-232.448 232.448-232.448 129.024 0 233.472 103.424 233.472 231.424 0 128-103.424 232.448-232.448 232.448z" fill="#1E1E1E" p-id="24809"></path></svg>