<?xml version="1.0" standalone="no"?><!DOCTYPE svg PUBLIC "-//W3C//DTD SVG 1.1//EN" "http://www.w3.org/Graphics/SVG/1.1/DTD/svg11.dtd"><svg t="1761205765443" class="icon" viewBox="0 0 1024 1024" version="1.1" xmlns="http://www.w3.org/2000/svg" p-id="23001" xmlns:xlink="http://www.w3.org/1999/xlink" width="200" height="200"><path d="M412.444 561.067c-119.467 0-216.652-97.185-216.652-216.652s96.711-217.126 216.652-217.126 216.652 97.185 216.652 216.652-97.185 217.126-216.652 217.126z m0-370.726c-84.859 0-153.6 68.741-153.6 153.6s68.741 153.6 153.6 153.6 153.6-68.741 153.6-153.6-69.214-153.6-153.6-153.6z m316.682 706.37H95.763C78.222 896.711 64 882.489 64 864.948c0-153.126 156.444-277.333 348.444-277.333s348.444 124.207 348.444 277.333c-0.473 17.541-14.221 31.763-31.762 31.763zM130.37 833.185h564.148c-20.385-103.348-138.904-182.518-282.074-182.518S150.756 730.311 130.37 833.185zM960 812.326c0-75.852-33.659-154.074-89.6-209.541-24.652-24.178-52.148-43.141-82.015-56.889 43.141-34.133 70.637-86.756 70.637-145.541 0-101.926-82.963-185.363-185.363-185.363-17.542 0-31.763 14.221-31.763 31.763s14.221 31.763 31.763 31.763c67.318 0 121.837 54.519 121.837 121.837 0 66.844-54.044 121.363-120.889 121.837h-0.948c-17.541 0-31.289 14.222-31.289 31.763s14.222 31.289 31.763 31.289h1.422c72.533 0 121.837 33.659 150.281 62.104 43.615 43.615 70.637 106.667 70.637 164.978 0 17.542 14.221 31.763 31.763 31.763 17.543 0 31.764-14.221 31.764-31.763z" p-id="23002" fill="#707070"></path></svg>