<?xml version="1.0" standalone="no"?><!DOCTYPE svg PUBLIC "-//W3C//DTD SVG 1.1//EN" "http://www.w3.org/Graphics/SVG/1.1/DTD/svg11.dtd"><svg t="1761030441892" class="icon" viewBox="0 0 1024 1024" version="1.1" xmlns="http://www.w3.org/2000/svg" p-id="102440" data-spm-anchor-id="a313x.search_index.0.i78.18633a81rhSIE9" xmlns:xlink="http://www.w3.org/1999/xlink" width="200" height="200"><path d="M919.4 875.5L752.1 708.1c-1.1-1.1-2.4-1.5-3.6-2.4 55.1-64.6 88.5-148.2 88.5-239.8C837 261.7 671.4 96 467.1 96S97.2 261.7 97.2 465.9c0 32.6 4.6 64.1 12.6 94.2 9.6-14.6 34.4-49.1 49.3-55.6-1.6-12.7-2.7-25.5-2.7-38.7 0-171.6 139.1-310.7 310.7-310.7s310.7 139.1 310.7 310.7c0 134.9-86.1 249.3-206.1 292.3-5.7 24.4-14.9 47.6-27.5 69.2 61.6-13.1 117.5-41.4 163.6-80.9 0.9 1.1 1.3 2.5 2.4 3.6l167.4 167.3c11.6 11.6 30.3 11.6 41.8 0 11.6-11.5 11.6-30.2 0-41.8zM483.1 540c-42.6-42.6-99.3-66.1-159.6-66.1S206.6 497.4 164 540c-42.6 42.6-66.1 99.3-66.1 159.6s23.5 116.9 66.1 159.6c42.6 42.6 99.3 66.1 159.6 66.1s116.9-23.5 159.5-66.1c42.6-42.6 66.1-99.3 66.1-159.6-0.1-60.3-23.5-117-66.1-159.6z m-41.9 277.3C409.8 848.7 368 866 323.6 866c-44.5 0-86.3-17.3-117.7-48.8-31.4-31.4-48.8-73.3-48.8-117.7 0-44.5 17.3-86.3 48.8-117.7 31.4-31.5 73.2-48.7 117.7-48.7s86.3 17.3 117.7 48.7c31.4 31.4 48.8 73.3 48.8 117.7-0.1 44.6-17.4 86.3-48.9 117.8z m-13.9-221.4c-11.6-11.6-30.3-11.6-41.8 0l-61.9 61.9-61.9-61.9c-11.6-11.6-30.3-11.6-41.8 0-11.6 11.6-11.6 30.3 0 41.8l61.9 61.9-61.9 61.9c-11.6 11.6-11.6 30.3 0 41.8 5.8 5.8 13.3 8.7 20.9 8.7 7.6 0 15.1-2.9 20.9-8.7l61.9-61.9 61.9 61.9c5.8 5.8 13.3 8.7 20.9 8.7 7.6 0 15.1-2.9 20.9-8.7 11.6-11.6 11.6-30.3 0-41.8l-61.9-61.9 61.9-61.9c11.5-11.5 11.5-30.3 0-41.8z" fill="#13227a" p-id="102441" data-spm-anchor-id="a313x.search_index.0.i77.18633a81rhSIE9" class=""></path></svg>