<?xml version="1.0" standalone="no"?><!DOCTYPE svg PUBLIC "-//W3C//DTD SVG 1.1//EN" "http://www.w3.org/Graphics/SVG/1.1/DTD/svg11.dtd"><svg t="1761035330597" class="icon" viewBox="0 0 1194 1024" version="1.1" xmlns="http://www.w3.org/2000/svg" p-id="124294" xmlns:xlink="http://www.w3.org/1999/xlink" width="233.203125" height="200"><path d="M1109.333333 1024H85.333333a85.333333 85.333333 0 0 1-85.333333-85.333333V85.333333a85.333333 85.333333 0 0 1 85.333333-85.333333h341.333334a85.333333 85.333333 0 0 1 85.333333 85.333333l85.333333 85.333334h512a85.333333 85.333333 0 0 1 85.333334 85.333333v682.666667a85.333333 85.333333 0 0 1-85.333334 85.333333z m-42.666666-768h-938.666667a42.666667 42.666667 0 0 0 0 85.333333h938.666667a42.666667 42.666667 0 0 0 0-85.333333z" fill="#ffcd42" p-id="124295"></path></svg>