<?xml version="1.0" standalone="no"?><!DOCTYPE svg PUBLIC "-//W3C//DTD SVG 1.1//EN" "http://www.w3.org/Graphics/SVG/1.1/DTD/svg11.dtd"><svg t="1761033740351" class="icon" viewBox="0 0 1025 1024" version="1.1" xmlns="http://www.w3.org/2000/svg" p-id="119998" xmlns:xlink="http://www.w3.org/1999/xlink" width="200.1953125" height="200"><path d="M949.12 68.288h-870.4c-42.24 0-76.8 34.56-76.8 76.8v577.6c0 42.24 34.56 76.8 76.8 76.8h270.272v112.832H158.016c-15.744 0-28.48 12.736-28.48 28.48s12.736 28.48 28.48 28.48h711.808c15.744 0 28.48-12.736 28.48-28.48s-12.736-28.48-28.48-28.48h-190.976v-112.832h270.272c42.24 0 76.8-34.56 76.8-76.8V145.088c0-42.24-34.56-76.8-76.8-76.8z m46.528 643.904H39.488V127.68h956.16v584.512z" fill="#515151" p-id="119999"></path></svg>