<?xml version="1.0" standalone="no"?><!DOCTYPE svg PUBLIC "-//W3C//DTD SVG 1.1//EN" "http://www.w3.org/Graphics/SVG/1.1/DTD/svg11.dtd"><svg t="1761027047682" class="icon" viewBox="0 0 1024 1024" version="1.1" xmlns="http://www.w3.org/2000/svg" p-id="53012" xmlns:xlink="http://www.w3.org/1999/xlink" width="200" height="200"><path d="M1024 512C1024 229.230204 794.769796 0 512 0 229.230204 0 0 229.230204 0 512 0 794.769796 229.230204 1024 512 1024 794.769796 1024 1024 794.769796 1024 512ZM70.62069 512C70.62069 268.232934 268.232934 70.62069 512 70.62069 755.767066 70.62069 953.37931 268.232934 953.37931 512 953.37931 755.767066 755.767066 953.37931 512 953.37931 268.232934 953.37931 70.62069 755.767066 70.62069 512ZM512.015395 476.689655C521.717389 476.689655 529.655172 484.608406 529.655172 494.329432L529.655172 247.187809C529.655172 227.686435 513.846184 211.877464 494.344828 211.877464 474.843471 211.877464 459.034483 227.686435 459.034483 247.187809L459.034483 494.329432C459.034483 523.649148 482.752565 547.310345 512.015395 547.310345L759.157018 547.310345C778.658392 547.310345 794.467363 531.501356 794.467363 512 794.467363 492.498644 778.658392 476.689655 759.157018 476.689655L512.015395 476.689655Z" fill="#24b25b" p-id="53013"></path></svg>